<mxfile host="app.diagrams.net" modified="2021-01-07T08:57:15.573Z" agent="5.0 (X11; Linux x86_64) AppleWebKit/537.36 (KHTML, like Gecko) Chrome/87.0.4280.66 Safari/537.36" etag="u2RuNFABaC--nJh1CpuE" version="14.1.8" type="github">
  <diagram id="qHkgmtxtLMQOU6M-P_r4" name="Page-1">
    <mxGraphModel dx="1355" dy="-4694" grid="1" gridSize="10" guides="1" tooltips="1" connect="1" arrows="1" fold="1" page="1" pageScale="1" pageWidth="250" pageHeight="500" math="0" shadow="0">
      <root>
        <mxCell id="0" />
        <mxCell id="1" parent="0" />
        <mxCell id="s_vhGfuO6B_vObglOuk0-1" value="&lt;font style=&quot;font-size: 30px&quot;&gt;Delete rule(&lt;/font&gt;&lt;font style=&quot;font-size: 20px&quot;&gt;/api/rules/{id}&lt;/font&gt;&lt;font style=&quot;font-size: 30px&quot;&gt;)&lt;/font&gt;" style="text;html=1;strokeColor=none;fillColor=none;align=center;verticalAlign=middle;whiteSpace=wrap;rounded=0;" vertex="1" parent="1">
          <mxGeometry x="327" y="5610" width="666" height="50" as="geometry" />
        </mxCell>
        <mxCell id="s_vhGfuO6B_vObglOuk0-2" value=":RuleRest&#xa;Controller" style="shape=umlLifeline;perimeter=lifelinePerimeter;container=1;collapsible=0;recursiveResize=0;rounded=0;shadow=0;strokeWidth=1;" vertex="1" parent="1">
          <mxGeometry x="160" y="5687" width="100" height="443" as="geometry" />
        </mxCell>
        <mxCell id="s_vhGfuO6B_vObglOuk0-3" value="" style="points=[];perimeter=orthogonalPerimeter;rounded=0;shadow=0;strokeWidth=1;" vertex="1" parent="s_vhGfuO6B_vObglOuk0-2">
          <mxGeometry x="45" y="70" width="10" height="330" as="geometry" />
        </mxCell>
        <mxCell id="s_vhGfuO6B_vObglOuk0-4" value="dispatch" style="verticalAlign=bottom;startArrow=oval;endArrow=block;startSize=8;shadow=0;strokeWidth=1;" edge="1" parent="s_vhGfuO6B_vObglOuk0-2" target="s_vhGfuO6B_vObglOuk0-3">
          <mxGeometry relative="1" as="geometry">
            <mxPoint x="-15" y="70" as="sourcePoint" />
          </mxGeometry>
        </mxCell>
        <mxCell id="s_vhGfuO6B_vObglOuk0-5" value=":RuleRepository" style="shape=umlLifeline;perimeter=lifelinePerimeter;container=1;collapsible=0;recursiveResize=0;rounded=0;shadow=0;strokeWidth=1;" vertex="1" parent="1">
          <mxGeometry x="340" y="5687" width="100" height="443" as="geometry" />
        </mxCell>
        <mxCell id="s_vhGfuO6B_vObglOuk0-6" value="" style="points=[];perimeter=orthogonalPerimeter;rounded=0;shadow=0;strokeWidth=1;" vertex="1" parent="s_vhGfuO6B_vObglOuk0-5">
          <mxGeometry x="45" y="70" width="10" height="330" as="geometry" />
        </mxCell>
        <mxCell id="s_vhGfuO6B_vObglOuk0-7" value="deleteById" style="verticalAlign=bottom;endArrow=block;entryX=0;entryY=0;shadow=0;strokeWidth=1;" edge="1" parent="1">
          <mxGeometry relative="1" as="geometry">
            <mxPoint x="214.99999999999977" y="5785" as="sourcePoint" />
            <mxPoint x="384.9999999999998" y="5785" as="targetPoint" />
          </mxGeometry>
        </mxCell>
        <mxCell id="s_vhGfuO6B_vObglOuk0-8" value=":FlinkRulesService" style="shape=umlLifeline;perimeter=lifelinePerimeter;container=1;collapsible=0;recursiveResize=0;rounded=0;shadow=0;strokeWidth=1;" vertex="1" parent="1">
          <mxGeometry x="523.5" y="5687" width="100" height="443" as="geometry" />
        </mxCell>
        <mxCell id="s_vhGfuO6B_vObglOuk0-9" value="" style="points=[];perimeter=orthogonalPerimeter;rounded=0;shadow=0;strokeWidth=1;" vertex="1" parent="s_vhGfuO6B_vObglOuk0-8">
          <mxGeometry x="45" y="80" width="10" height="320" as="geometry" />
        </mxCell>
        <mxCell id="s_vhGfuO6B_vObglOuk0-10" value="deleteRule" style="verticalAlign=bottom;endArrow=block;entryX=0;entryY=0;shadow=0;strokeWidth=1;" edge="1" parent="1">
          <mxGeometry relative="1" as="geometry">
            <mxPoint x="396" y="5811.66" as="sourcePoint" />
            <mxPoint x="566" y="5811.66" as="targetPoint" />
          </mxGeometry>
        </mxCell>
        <mxCell id="s_vhGfuO6B_vObglOuk0-11" value=":RulePayload" style="shape=umlLifeline;perimeter=lifelinePerimeter;container=1;collapsible=0;recursiveResize=0;rounded=0;shadow=0;strokeWidth=1;" vertex="1" parent="1">
          <mxGeometry x="697.5" y="5687" width="100" height="443" as="geometry" />
        </mxCell>
        <mxCell id="s_vhGfuO6B_vObglOuk0-12" value="" style="points=[];perimeter=orthogonalPerimeter;rounded=0;shadow=0;strokeWidth=1;" vertex="1" parent="s_vhGfuO6B_vObglOuk0-11">
          <mxGeometry x="45" y="80" width="10" height="320" as="geometry" />
        </mxCell>
        <mxCell id="s_vhGfuO6B_vObglOuk0-13" value=":KafkaTemplate" style="shape=umlLifeline;perimeter=lifelinePerimeter;container=1;collapsible=0;recursiveResize=0;rounded=0;shadow=0;strokeWidth=1;" vertex="1" parent="1">
          <mxGeometry x="1025" y="5687" width="100" height="443" as="geometry" />
        </mxCell>
        <mxCell id="s_vhGfuO6B_vObglOuk0-14" value="" style="points=[];perimeter=orthogonalPerimeter;rounded=0;shadow=0;strokeWidth=1;" vertex="1" parent="s_vhGfuO6B_vObglOuk0-13">
          <mxGeometry x="45" y="80" width="10" height="320" as="geometry" />
        </mxCell>
        <mxCell id="s_vhGfuO6B_vObglOuk0-15" value="send" style="verticalAlign=bottom;endArrow=block;shadow=0;strokeWidth=1;" edge="1" parent="1">
          <mxGeometry relative="1" as="geometry">
            <mxPoint x="925" y="6019" as="sourcePoint" />
            <mxPoint x="1070" y="6019" as="targetPoint" />
          </mxGeometry>
        </mxCell>
        <mxCell id="s_vhGfuO6B_vObglOuk0-16" value="setRuleState" style="verticalAlign=bottom;endArrow=block;shadow=0;strokeWidth=1;" edge="1" parent="1">
          <mxGeometry relative="1" as="geometry">
            <mxPoint x="578.5" y="5925" as="sourcePoint" />
            <mxPoint x="742.5" y="5925" as="targetPoint" />
          </mxGeometry>
        </mxCell>
        <mxCell id="s_vhGfuO6B_vObglOuk0-17" value="setRuleId" style="verticalAlign=bottom;endArrow=block;shadow=0;strokeWidth=1;" edge="1" parent="1">
          <mxGeometry relative="1" as="geometry">
            <mxPoint x="577.5" y="5862" as="sourcePoint" />
            <mxPoint x="741.5" y="5862" as="targetPoint" />
          </mxGeometry>
        </mxCell>
        <mxCell id="s_vhGfuO6B_vObglOuk0-18" value=":ObjectMapper" style="shape=umlLifeline;perimeter=lifelinePerimeter;container=1;collapsible=0;recursiveResize=0;rounded=0;shadow=0;strokeWidth=1;" vertex="1" parent="1">
          <mxGeometry x="870" y="5687" width="100" height="443" as="geometry" />
        </mxCell>
        <mxCell id="s_vhGfuO6B_vObglOuk0-19" value="" style="points=[];perimeter=orthogonalPerimeter;rounded=0;shadow=0;strokeWidth=1;" vertex="1" parent="s_vhGfuO6B_vObglOuk0-18">
          <mxGeometry x="45" y="80" width="10" height="320" as="geometry" />
        </mxCell>
        <mxCell id="s_vhGfuO6B_vObglOuk0-20" value="writeValueAsString" style="verticalAlign=bottom;endArrow=block;shadow=0;strokeWidth=1;" edge="1" parent="1">
          <mxGeometry relative="1" as="geometry">
            <mxPoint x="752.5" y="5971" as="sourcePoint" />
            <mxPoint x="915" y="5971" as="targetPoint" />
          </mxGeometry>
        </mxCell>
      </root>
    </mxGraphModel>
  </diagram>
</mxfile>
